<?xml version="1.0" encoding="iso-8859-1"?>
<!-- Generator: Adobe Illustrator 19.0.0, SVG Export Plug-In . SVG Version: 6.00 Build 0)  -->
<svg version="1.1" id="Capa_1" xmlns="http://www.w3.org/2000/svg" xmlns:xlink="http://www.w3.org/1999/xlink" x="0px" y="0px"
	 viewBox="0 0 512 512" style="enable-background:new 0 0 512 512;" xml:space="preserve">
<polygon style="fill:#6F7D96;" points="364.6,467 117.4,467 153.701,355.899 328.299,355.899 "/>
<polygon style="fill:#66728B;" points="364.6,467 241,467 241,355.899 328.299,355.899 "/>
<path style="fill:#F40F78;" d="M241,0l-15,19.997v152.242L241,196l13.75,1.25L364.438,87.562l14.448-29.448
	C343.598,22.826,294.848,0,241,0z"/>
<path style="fill:#FFBC33;" d="M378.886,58.114L241,196l18.757,15H422.25L436,196C436,142.152,414.174,93.402,378.886,58.114z"/>
<path style="fill:#F40F78;" d="M241,196l3.795,18.795l104.072,104.072l30.019,15.019C414.174,298.598,436,249.848,436,196H241z"/>
<path style="fill:#FFBC33;" d="M241,196l-15,23.771v152.487L241,391c53.848,0,102.598-21.826,137.886-57.114L241,196z"/>
<path style="fill:#FF507E;" d="M103.114,333.886C138.402,369.174,187.152,391,241,391V196l-27.813,12.813L103.812,318.188
	L103.114,333.886z"/>
<path style="fill:#FFDA2D;" d="M46,196c0,53.848,21.826,102.598,57.114,137.886L241,196l-19.365-15H71.633L46,196z"/>
<path style="fill:#FF507E;" d="M103.114,58.114C67.826,93.402,46,142.152,46,196h195l-10.591-25.591L120.15,60.15L103.114,58.114z"
	/>
<path style="fill:#FFDA2D;" d="M103.114,58.114L241,196V0C187.152,0,138.402,22.826,103.114,58.114z"/>
<path style="fill:#495A79;" d="M406,482c0,16.5-13.5,30-30,30H106c-16.5,0-30-13.5-30-30s13.5-30,30-30h270
	C392.5,452,406,465.5,406,482z"/>
<path style="fill:#42516D;" d="M406,482c0,16.5-13.5,30-30,30H241v-60h135C392.5,452,406,465.5,406,482z"/>
<path style="fill:#495A79;" d="M444.401,137.5l-90,45C349.3,185.2,346,190.3,346,196s3.3,10.8,8.401,13.5l90,45
	C454.3,259.3,466,252.1,466,241v-90C466,139.9,454.3,132.7,444.401,137.5z"/>
<path style="fill:#42516D;" d="M466,196v45c0,11.1-11.7,18.3-21.599,13.5l-90-45C349.3,206.8,346,201.7,346,196H466z"/>
<path style="fill:#495A79;" d="M286,196c0,24.899-20.099,45-45,45s-45-20.101-45-45c0-24.901,20.099-45,45-45S286,171.099,286,196z"
	/>
<path style="fill:#42516D;" d="M286,196c0,24.899-20.099,45-45,45v-90C265.901,151,286,171.099,286,196z"/>
<path style="fill:#E1E4FB;" d="M256,196c0,8.399-6.599,15-15,15s-15-6.601-15-15c0-8.401,6.599-15,15-15S256,187.599,256,196z"/>
<path style="fill:#A8AFF1;" d="M256,196c0,8.399-6.599,15-15,15v-30C249.401,181,256,187.599,256,196z"/>
<g>
</g>
<g>
</g>
<g>
</g>
<g>
</g>
<g>
</g>
<g>
</g>
<g>
</g>
<g>
</g>
<g>
</g>
<g>
</g>
<g>
</g>
<g>
</g>
<g>
</g>
<g>
</g>
<g>
</g>
</svg>
