<svg viewBox="0 0 108 108" fill="none" xmlns="http://www.w3.org/2000/svg">
    <g filter="url(#filter0_d)">
        <circle cx="54" cy="50" r="50" fill="#2C3E50"/>
        <path
                d="M103.884 46.5915C104.401 54.1603 103.189 61.7476 100.34 68.7787C97.4904 75.8098 93.0784 82.1003 87.4381 87.1738L81.6096 80.6942C86.2668 76.505 89.9097 71.3109 92.2623 65.5054C94.6149 59.6999 95.6156 53.4351 95.1886 47.1856L103.884 46.5915Z"
                fill="white"/>
        <path
                d="M76.4407 5.31871C83.2202 8.72363 89.136 13.6266 93.74 19.6564C98.344 25.6861 101.516 32.6844 103.014 40.1214L94.4709 41.8433C93.2333 35.7027 90.6146 29.9242 86.813 24.9455C83.0115 19.9668 78.1269 15.9184 72.5292 13.107L76.4407 5.31871Z"
                fill="white"/>
        <path
                d="M27.0914 7.85825C33.4856 3.77542 40.725 1.20116 48.2613 0.330427C55.7977 -0.540299 63.4334 0.315336 70.5901 2.83254L67.6983 11.0542C61.7891 8.97574 55.4843 8.26925 49.2616 8.9882C43.0389 9.70716 37.0614 11.8327 31.7818 15.2039L27.0914 7.85825Z"
                fill="white"/>
        <path
                d="M4.12871 53.5855C3.58468 46.0186 4.7697 38.427 7.59402 31.3859C10.4183 24.3447 14.8079 18.0386 20.4302 12.945L26.2817 19.404C21.6394 23.6097 18.0149 28.8166 15.6829 34.6305C13.3509 40.4443 12.3724 46.7126 12.8216 52.9605L4.12871 53.5855Z"
                fill="white"/>
        <path
                d="M31.5522 94.6777C24.7733 91.2717 18.8583 86.3678 14.2552 80.3373C9.65215 74.3069 6.4817 67.308 4.98401 59.8708L13.5279 58.1503C14.7645 64.2911 17.3823 70.07 21.183 75.0493C24.9837 80.0286 29.8677 84.0778 35.465 86.8901L31.5522 94.6777Z"
                fill="white"/>
        <path
                d="M81.9597 91.4519C75.6702 95.6942 68.4978 98.4497 60.9857 99.5096C53.4737 100.57 45.8189 99.9062 38.6011 97.5697L41.2853 89.278C47.2449 91.2072 53.5654 91.7549 59.7681 90.8797C65.9707 90.0046 71.8929 87.7294 77.0861 84.2265L81.9597 91.4519Z"
                fill="white"/>
        <path
                d="M51.5867 65.4667C55.4911 65.4667 58.4 64.6033 60.3133 62.8767C62.2422 61.15 63.2067 58.7467 63.2067 55.6667C63.2067 54.1889 62.9656 52.9056 62.4833 51.8167C62.0167 50.7122 61.3711 49.8489 60.5467 49.2267C59.7222 48.5889 58.8122 48.1222 57.8167 47.8267C56.8367 47.5156 55.7633 47.36 54.5967 47.36C53.8967 47.36 53.1344 47.4533 52.31 47.64C51.4856 47.8111 50.8633 48.0289 50.4433 48.2933L51.4233 43.4167H61.1533L62.7633 37.6533H46.36L44.82 53.24C46.9511 52.3844 48.88 51.9567 50.6067 51.9567C52.3022 51.9567 53.5389 52.3144 54.3167 53.03C55.11 53.7456 55.5067 54.7178 55.5067 55.9467C55.5067 57.58 55.0011 58.7467 53.99 59.4467C52.9944 60.1467 51.4544 60.4967 49.37 60.4967C48.67 60.4967 47.7911 60.3489 46.7333 60.0533C45.6756 59.7422 44.9056 59.3922 44.4233 59.0033V63.25C46.7567 64.7278 49.1444 65.4667 51.5867 65.4667Z"
                fill="white"/>
    </g>
    <defs>
        <filter id="filter0_d" x="-1.90735e-05" y="0" width="108" height="108" filterUnits="userSpaceOnUse"
                color-interpolation-filters="sRGB">
            <feFlood flood-opacity="0" result="BackgroundImageFix"/>
            <feColorMatrix in="SourceAlpha" type="matrix" values="0 0 0 0 0 0 0 0 0 0 0 0 0 0 0 0 0 0 127 0"/>
            <feOffset dy="4"/>
            <feGaussianBlur stdDeviation="2"/>
            <feColorMatrix type="matrix" values="0 0 0 0 0 0 0 0 0 0 0 0 0 0 0 0 0 0 0.25 0"/>
            <feBlend mode="normal" in2="BackgroundImageFix" result="effect1_dropShadow"/>
            <feBlend mode="normal" in="SourceGraphic" in2="effect1_dropShadow" result="shape"/>
        </filter>
    </defs>
</svg>