<?xml version="1.0" encoding="iso-8859-1"?>
<!-- Generator: Adobe Illustrator 19.0.0, SVG Export Plug-In . SVG Version: 6.00 Build 0)  -->
<svg version="1.1" id="Capa_1" xmlns="http://www.w3.org/2000/svg" xmlns:xlink="http://www.w3.org/1999/xlink" x="0px" y="0px"
	 viewBox="0 0 512 512" style="enable-background:new 0 0 512 512;" xml:space="preserve">
<g>
	<g>
		<path d="M490.667,277.334h-69.035L361.92,58.369c-2.581-9.451-11.307-15.808-21.077-15.701
			c-9.813,0.235-18.197,7.125-20.352,16.683L251.2,371.158l-81.792-229.013c-3.115-8.725-11.413-14.357-20.757-14.144
			c-9.28,0.299-17.28,6.549-19.84,15.467L90.581,277.334H21.333C9.536,277.334,0,286.891,0,298.667s9.536,21.333,21.333,21.333
			h85.333c9.515,0,17.899-6.315,20.501-15.488l24.405-85.44l84.352,236.096c3.029,8.533,11.093,14.165,20.075,14.165
			c0.448,0,0.875-0.021,1.323-0.043c9.472-0.597,17.429-7.381,19.499-16.661l66.603-299.797l41.323,151.445
			c2.539,9.28,10.965,15.723,20.587,15.723h85.333c11.797,0,21.333-9.557,21.333-21.333S502.464,277.334,490.667,277.334z"/>
	</g>
</g>
<g>
</g>
<g>
</g>
<g>
</g>
<g>
</g>
<g>
</g>
<g>
</g>
<g>
</g>
<g>
</g>
<g>
</g>
<g>
</g>
<g>
</g>
<g>
</g>
<g>
</g>
<g>
</g>
<g>
</g>
</svg>
