<svg viewBox="0 0 108 108" fill="none" xmlns="http://www.w3.org/2000/svg">
    <g filter="url(#filter0_d)">
        <circle cx="54" cy="50" r="50" fill="#C0392B"/>
        <path
                d="M103.884 46.5915C104.401 54.1603 103.189 61.7476 100.34 68.7787C97.4904 75.8098 93.0785 82.1003 87.4381 87.1738L81.6096 80.6942C86.2668 76.505 89.9097 71.3109 92.2623 65.5054C94.6149 59.6999 95.6156 53.4351 95.1886 47.1856L103.884 46.5915Z"
                fill="white"/>
        <path
                d="M76.4407 5.31871C83.2202 8.72363 89.136 13.6266 93.74 19.6564C98.344 25.6861 101.516 32.6844 103.014 40.1214L94.4709 41.8433C93.2333 35.7027 90.6146 29.9242 86.813 24.9455C83.0115 19.9668 78.1269 15.9184 72.5292 13.107L76.4407 5.31871Z"
                fill="white"/>
        <path
                d="M27.0914 7.85825C33.4856 3.77542 40.725 1.20116 48.2613 0.330427C55.7977 -0.540299 63.4334 0.315336 70.5901 2.83254L67.6983 11.0542C61.7891 8.97574 55.4843 8.26925 49.2616 8.9882C43.0389 9.70716 37.0614 11.8327 31.7818 15.2039L27.0914 7.85825Z"
                fill="white"/>
        <path
                d="M4.12871 53.5855C3.58468 46.0186 4.7697 38.427 7.59402 31.3859C10.4183 24.3447 14.8079 18.0386 20.4302 12.945L26.2817 19.404C21.6394 23.6097 18.0149 28.8166 15.6829 34.6305C13.3509 40.4443 12.3724 46.7126 12.8216 52.9605L4.12871 53.5855Z"
                fill="white"/>
        <path
                d="M31.5522 94.6777C24.7733 91.2717 18.8583 86.3678 14.2552 80.3373C9.65215 74.3069 6.4817 67.308 4.98401 59.8708L13.5279 58.1503C14.7645 64.2911 17.3823 70.07 21.183 75.0493C24.9837 80.0286 29.8677 84.0778 35.465 86.8901L31.5522 94.6777Z"
                fill="white"/>
        <path
                d="M81.9597 91.4519C75.6702 95.6942 68.4978 98.4497 60.9857 99.5096C53.4737 100.57 45.8189 99.9062 38.6011 97.5697L41.2853 89.278C47.2449 91.2072 53.5654 91.7549 59.7681 90.8797C65.9707 90.0046 71.8929 87.7294 77.0861 84.2265L81.9597 91.4519Z"
                fill="white"/>
        <path
                d="M38.6667 66H46.4833V38.6767H41.3267C41.0311 39.5167 40.65 40.2244 40.1833 40.8C39.7167 41.3756 39.1567 41.8267 38.5033 42.1533C37.85 42.48 37.2278 42.7211 36.6367 42.8767C36.0456 43.0322 35.3144 43.1722 34.4433 43.2967V48.2667L38.6667 47.8V66Z"
                fill="white"/>
        <path
                d="M58.5525 55.43V49.5733C58.5525 46.8044 58.7781 44.8756 59.2292 43.7867C59.6958 42.6978 60.4425 42.1533 61.4692 42.1533C63.4914 42.1533 64.5025 44.3544 64.5025 48.7567V54.38C64.5025 56.6356 64.3858 58.3544 64.1525 59.5367C63.9192 60.7033 63.6003 61.4656 63.1958 61.8233C62.7914 62.1656 62.2158 62.3367 61.4692 62.3367C60.4581 62.3367 59.7192 61.8233 59.2525 60.7967C58.7858 59.7544 58.5525 57.9656 58.5525 55.43ZM60.9792 66.49C62.8769 66.49 64.5258 66.28 65.9258 65.86C67.3414 65.44 68.5003 64.8489 69.4025 64.0867C70.3203 63.3244 71.0514 62.3444 71.5958 61.1467C72.1558 59.9489 72.5447 58.65 72.7625 57.25C72.9803 55.85 73.0892 54.2244 73.0892 52.3733C73.0892 50.6 73.0036 49.0522 72.8325 47.73C72.6614 46.3922 72.3347 45.1011 71.8525 43.8567C71.3703 42.6122 70.7247 41.5933 69.9158 40.8C69.1225 40.0067 68.0569 39.3767 66.7192 38.91C65.3969 38.4433 63.8336 38.21 62.0292 38.21C60.1314 38.21 58.4747 38.4278 57.0592 38.8633C55.6592 39.2989 54.5081 39.9056 53.6058 40.6833C52.7036 41.4456 51.9803 42.4333 51.4358 43.6467C50.8914 44.8444 50.5103 46.1433 50.2925 47.5433C50.0747 48.9433 49.9658 50.5689 49.9658 52.42C49.9658 54.1933 50.0514 55.7489 50.2225 57.0867C50.3936 58.4244 50.7125 59.7078 51.1792 60.9367C51.6614 62.1656 52.3069 63.1689 53.1158 63.9467C53.9247 64.7244 54.9825 65.3467 56.2892 65.8133C57.6114 66.2644 59.1747 66.49 60.9792 66.49Z"
                fill="white"/>
    </g>
    <defs>
        <filter id="filter0_d" x="-1.90735e-05" y="0" width="108" height="108" filterUnits="userSpaceOnUse"
                color-interpolation-filters="sRGB">
            <feFlood flood-opacity="0" result="BackgroundImageFix"/>
            <feColorMatrix in="SourceAlpha" type="matrix" values="0 0 0 0 0 0 0 0 0 0 0 0 0 0 0 0 0 0 127 0"/>
            <feOffset dy="4"/>
            <feGaussianBlur stdDeviation="2"/>
            <feColorMatrix type="matrix" values="0 0 0 0 0 0 0 0 0 0 0 0 0 0 0 0 0 0 0.25 0"/>
            <feBlend mode="normal" in2="BackgroundImageFix" result="effect1_dropShadow"/>
            <feBlend mode="normal" in="SourceGraphic" in2="effect1_dropShadow" result="shape"/>
        </filter>
    </defs>
</svg>