<svg width="1200" height="1200" viewBox="0 0 1200 1200" fill="none" xmlns="http://www.w3.org/2000/svg">
<g id="loading">
<g id="polygons">
<path id="polygon7" d="M590 505.774C596.188 502.201 603.812 502.201 610 505.774L676.603 544.226C682.791 547.799 686.603 554.402 686.603 561.547V638.453C686.603 645.598 682.791 652.201 676.603 655.773L610 694.227C603.812 697.799 596.188 697.799 590 694.227L523.397 655.773C517.209 652.201 513.397 645.598 513.397 638.453V561.547C513.397 554.402 517.209 547.799 523.397 544.226L590 505.774Z" fill="#2C3E50"/>
<path id="polygon6" d="M400 505.774C406.188 502.201 413.812 502.201 420 505.774L486.603 544.226C492.791 547.799 496.603 554.402 496.603 561.547V638.453C496.603 645.598 492.791 652.201 486.603 655.773L420 694.227C413.812 697.799 406.188 697.799 400 694.227L333.397 655.773C327.209 652.201 323.397 645.598 323.397 638.453V561.547C323.397 554.402 327.209 547.799 333.397 544.226L400 505.774Z" fill="#2C3E50"/>
<path id="polygon5" d="M495 666.774C501.188 663.201 508.812 663.201 515 666.774L581.603 705.226C587.791 708.799 591.603 715.402 591.603 722.547V799.453C591.603 806.598 587.791 813.201 581.603 816.773L515 855.227C508.812 858.799 501.188 858.799 495 855.227L428.397 816.773C422.209 813.201 418.397 806.598 418.397 799.453V722.547C418.397 715.402 422.209 708.799 428.397 705.226L495 666.774Z" fill="#2C3E50"/>
<path id="polygon4" d="M685 666.774C691.188 663.201 698.812 663.201 705 666.774L771.603 705.226C777.791 708.799 781.603 715.402 781.603 722.547V799.453C781.603 806.598 777.791 813.201 771.603 816.773L705 855.227C698.812 858.799 691.188 858.799 685 855.227L618.397 816.773C612.209 813.201 608.397 806.598 608.397 799.453V722.547C608.397 715.402 612.209 708.799 618.397 705.226L685 666.774Z" fill="#2C3E50"/>
<path id="polygon3" d="M780 505.774C786.188 502.201 793.812 502.201 800 505.774L866.603 544.226C872.791 547.799 876.603 554.402 876.603 561.547V638.453C876.603 645.598 872.791 652.201 866.603 655.773L800 694.227C793.812 697.799 786.188 697.799 780 694.227L713.397 655.773C707.209 652.201 703.397 645.598 703.397 638.453V561.547C703.397 554.402 707.209 547.799 713.397 544.226L780 505.774Z" fill="#2C3E50"/>
<path id="polygon2" d="M685 344.774C691.188 341.201 698.812 341.201 705 344.774L771.603 383.226C777.791 386.799 781.603 393.402 781.603 400.547V477.453C781.603 484.598 777.791 491.201 771.603 494.773L705 533.227C698.812 536.799 691.188 536.799 685 533.227L618.397 494.773C612.209 491.201 608.397 484.598 608.397 477.453V400.547C608.397 393.402 612.209 386.799 618.397 383.226L685 344.774Z" fill="#2C3E50"/>
<path id="polygon1" d="M495 344.774C501.188 341.201 508.812 341.201 515 344.774L581.603 383.226C587.791 386.799 591.603 393.402 591.603 400.547V477.453C591.603 484.598 587.791 491.201 581.603 494.773L515 533.227C508.812 536.799 501.188 536.799 495 533.227L428.397 494.773C422.209 491.201 418.397 484.598 418.397 477.453V400.547C418.397 393.402 422.209 386.799 428.397 383.226L495 344.774Z" fill="#2C3E50"/>
</g>
<circle id="externalOutline" cx="600" cy="600" r="582.5" stroke="#2C3E50" stroke-width="35"/>
<circle id="middleOutline" cx="600" cy="600" r="417.5" stroke="#2C3E50" stroke-width="5"/>
<circle id="internalOutline" cx="600" cy="600" r="340" stroke="#2C3E50" stroke-width="20"/>
<circle id="internalOutline2" cx="600" cy="600" r="340" stroke="#2C3E50" stroke-width="20"/>
<path id="internalOutlineArc" d="M323.646 401.939C355.119 358.025 396.604 322.243 444.663 297.559C492.722 272.875 545.972 260 600 260" stroke="#2C3E50" stroke-width="20"/>
<path id="middleOutlineArc" d="M600 182.5C545.15 182.5 490.838 193.308 440.166 214.307" stroke="#2C3E50" stroke-width="5"/>
</g>
</svg>
