<?xml version="1.0" encoding="iso-8859-1"?>
<!-- Generator: Adobe Illustrator 19.0.0, SVG Export Plug-In . SVG Version: 6.00 Build 0)  -->
<svg version="1.1" id="Layer_1" xmlns="http://www.w3.org/2000/svg" xmlns:xlink="http://www.w3.org/1999/xlink" x="0px" y="0px"
	 viewBox="0 0 512 512" style="enable-background:new 0 0 512 512;" xml:space="preserve">
<rect x="42.514" y="110.679" style="fill:#99DAEA;" width="426.968" height="292.309"/>
<g>
	<polygon style="opacity:0.5;fill:#C4E9F2;enable-background:new    ;" points="286.998,119.844 42.514,364.329 42.514,402.987 
		100.296,402.987 383.436,119.844 	"/>
	<polygon style="opacity:0.5;fill:#C4E9F2;enable-background:new    ;" points="224.801,402.987 321.241,402.987 469.486,254.74 
		469.486,158.3 	"/>
</g>
<rect x="42.514" y="110.679" style="fill:#6FD1E6;" width="426.968" height="19.662"/>
<path style="fill:#6CC04A;" d="M431.798,71.646c0,14.78-27.224,147.795,39.67,195.244c-15.555,16.336-27.224,77.787-27.224,173.465
	h59.117V71.646H431.798z"/>
<path style="fill:#4E9D2D;" d="M500.511,259.89c3.865,0,7,3.135,7,7.001c0,3.867-3.134,7.002-7,7.002h-29.042
	c-3.867,0-7-3.134-7-7.002c0-3.866,3.133-7.001,7-7.001H500.511z"/>
<path style="fill:#6CC04A;" d="M80.202,71.646c0,14.78,27.227,147.795-39.671,195.244c15.558,16.336,27.226,77.787,27.226,173.465
	H8.639V71.646H80.202z"/>
<path style="fill:#1E252B;" d="M503.361,63.007h-71.564c-4.701,0-8.515,3.755-8.628,8.427H88.831
	c-0.114-4.673-3.929-8.427-8.628-8.427H8.639C3.868,63.007,0,66.875,0,71.646v368.708c0,4.771,3.868,8.639,8.639,8.639H67.78
	c4.771,0,8.639-3.868,8.639-8.639c0-0.215-0.008-0.427-0.023-0.638c-0.003-6.837-0.074-13.519-0.196-20.067h359.602
	c-0.126,6.751-0.196,13.647-0.196,20.705c0,4.771,3.867,8.639,8.639,8.639h59.117c4.772,0,8.639-3.868,8.639-8.639V71.646
	C512,66.875,508.133,63.007,503.361,63.007z M421.305,88.713c-0.389,3.354-0.801,7.045-1.204,11.025H91.899
	c-0.402-3.981-0.813-7.671-1.202-11.025H421.305z M17.277,80.285h55.024c0.151,1.302,0.323,2.74,0.514,4.333
	c2.224,18.6,6.363,53.221,2.918,88.331c-3.954,40.296-16.75,68.976-38.043,85.303H17.277V80.285z M17.277,431.716V275.53h19.127
	c11.26,16.439,22.01,69.25,22.679,156.187H17.277z M246.713,402.373H75.734c-2.316-64.1-10.62-111.805-23.377-133.791
	c22.742-19.67,36.377-51.218,40.569-93.945c2.004-20.426,1.593-40.497,0.437-57.623h153.35V402.373z M436.268,402.373H263.99
	V117.015h154.647c-1.156,17.126-1.566,37.197,0.438,57.623c4.193,42.726,17.828,74.275,40.569,93.945
	C446.886,290.568,438.584,338.273,436.268,402.373z M494.723,431.716h-41.808c0.669-86.937,11.42-139.748,22.679-156.187h19.127
	v156.187H494.723z M494.723,258.252H474.31c-21.293-16.328-34.088-45.006-38.042-85.303c-3.445-35.11,0.695-69.731,2.918-88.331
	c0.19-1.593,0.362-3.032,0.514-4.333h55.024L494.723,258.252L494.723,258.252z"/>
<g>
</g>
<g>
</g>
<g>
</g>
<g>
</g>
<g>
</g>
<g>
</g>
<g>
</g>
<g>
</g>
<g>
</g>
<g>
</g>
<g>
</g>
<g>
</g>
<g>
</g>
<g>
</g>
<g>
</g>
</svg>
