<svg viewBox="0 0 108 108" fill="none" xmlns="http://www.w3.org/2000/svg">
    <g filter="url(#filter0_d)">
        <circle cx="54" cy="50" r="50" fill="#8E44AD"/>
        <path d="M103.884 46.5915C104.401 54.1603 103.189 61.7476 100.34 68.7787C97.4904 75.8098 93.0785 82.1003 87.4381 87.1738L81.6096 80.6942C86.2668 76.505 89.9097 71.3109 92.2623 65.5054C94.6149 59.6999 95.6156 53.4351 95.1886 47.1856L103.884 46.5915Z"
              fill="white"/>
        <path d="M76.4407 5.31871C83.2202 8.72363 89.136 13.6266 93.74 19.6564C98.344 25.6861 101.516 32.6844 103.014 40.1214L94.4709 41.8433C93.2333 35.7027 90.6146 29.9242 86.813 24.9455C83.0115 19.9668 78.1269 15.9184 72.5292 13.107L76.4407 5.31871Z"
              fill="white"/>
        <path d="M27.0914 7.85825C33.4856 3.77542 40.725 1.20116 48.2613 0.330427C55.7977 -0.540299 63.4334 0.315336 70.5901 2.83254L67.6983 11.0542C61.7891 8.97574 55.4843 8.26925 49.2616 8.9882C43.0389 9.70716 37.0614 11.8327 31.7818 15.2039L27.0914 7.85825Z"
              fill="white"/>
        <path d="M4.12871 53.5855C3.58468 46.0186 4.7697 38.427 7.59402 31.3859C10.4183 24.3447 14.8079 18.0386 20.4302 12.945L26.2817 19.404C21.6394 23.6097 18.0149 28.8166 15.6829 34.6305C13.3509 40.4443 12.3724 46.7126 12.8216 52.9605L4.12871 53.5855Z"
              fill="white"/>
        <path d="M31.5522 94.6777C24.7733 91.2717 18.8583 86.3678 14.2552 80.3373C9.65215 74.3069 6.4817 67.308 4.98401 59.8708L13.5279 58.1503C14.7645 64.2911 17.3823 70.07 21.183 75.0493C24.9837 80.0286 29.8677 84.0778 35.465 86.8901L31.5522 94.6777Z"
              fill="white"/>
        <path d="M81.9597 91.4519C75.6702 95.6942 68.4978 98.4497 60.9857 99.5096C53.4737 100.57 45.8189 99.9062 38.6011 97.5697L41.2853 89.278C47.2449 91.2072 53.5654 91.7549 59.7681 90.8797C65.9707 90.0046 71.8929 87.7294 77.0861 84.2265L81.9597 91.4519Z"
              fill="white"/>
        <path d="M53.84 66V59.56L39.84 60.61C40.3378 60.0033 40.9367 59.3967 41.6367 58.79C42.3522 58.1833 43.06 57.6467 43.76 57.18C44.4756 56.6978 45.2222 56.1922 46 55.6633C46.7933 55.1344 47.5322 54.6367 48.2167 54.17C48.9167 53.7033 49.5856 53.1744 50.2233 52.5833C50.8611 51.9922 51.4056 51.4011 51.8567 50.81C52.3233 50.2033 52.6889 49.5111 52.9533 48.7333C53.2333 47.94 53.3733 47.1078 53.3733 46.2367C53.3733 45.0389 53.1944 43.9811 52.8367 43.0633C52.4789 42.13 51.9967 41.3678 51.39 40.7767C50.7833 40.1856 50.0444 39.6956 49.1733 39.3067C48.3178 38.9178 47.4233 38.6456 46.49 38.49C45.5567 38.3344 44.5456 38.2567 43.4567 38.2567C38.6656 38.2567 35.4222 39.54 33.7267 42.1067L34.0767 47.59L38.3233 47.6133L39.4433 42.8067C40.1433 42.5889 40.9989 42.48 42.01 42.48C43.2078 42.48 44.11 43.0944 44.7167 44.3233C45.0589 45.0078 45.23 45.7311 45.23 46.4933C45.23 47.8156 44.6933 49.1611 43.62 50.53C42.5467 51.8989 40.75 53.6178 38.23 55.6867C35.1967 58.0511 33.68 60.3456 33.68 62.57C33.68 64.4522 33.7189 65.5022 33.7967 65.72L33.9367 66H53.84Z"
              fill="white"/>
        <path d="M63.6921 66.4667C67.5966 66.4667 70.5055 65.6033 72.4188 63.8767C74.3477 62.15 75.3121 59.7467 75.3121 56.6667C75.3121 55.1889 75.071 53.9056 74.5888 52.8167C74.1221 51.7122 73.4766 50.8489 72.6521 50.2267C71.8277 49.5889 70.9177 49.1222 69.9221 48.8267C68.9421 48.5156 67.8688 48.36 66.7021 48.36C66.0021 48.36 65.2399 48.4533 64.4155 48.64C63.591 48.8111 62.9688 49.0289 62.5488 49.2933L63.5288 44.4167H73.2588L74.8688 38.6533H58.4655L56.9255 54.24C59.0566 53.3844 60.9855 52.9567 62.7121 52.9567C64.4077 52.9567 65.6444 53.3144 66.4221 54.03C67.2155 54.7456 67.6121 55.7178 67.6121 56.9467C67.6121 58.58 67.1066 59.7467 66.0955 60.4467C65.0999 61.1467 63.5599 61.4967 61.4755 61.4967C60.7755 61.4967 59.8966 61.3489 58.8388 61.0533C57.781 60.7422 57.011 60.3922 56.5288 60.0033V64.25C58.8621 65.7278 61.2499 66.4667 63.6921 66.4667Z"
              fill="white"/>
    </g>
    <defs>
        <filter id="filter0_d" x="-1.90735e-05" y="0" width="108" height="108" filterUnits="userSpaceOnUse"
                color-interpolation-filters="sRGB">
            <feFlood flood-opacity="0" result="BackgroundImageFix"/>
            <feColorMatrix in="SourceAlpha" type="matrix" values="0 0 0 0 0 0 0 0 0 0 0 0 0 0 0 0 0 0 127 0"/>
            <feOffset dy="4"/>
            <feGaussianBlur stdDeviation="2"/>
            <feColorMatrix type="matrix" values="0 0 0 0 0 0 0 0 0 0 0 0 0 0 0 0 0 0 0.25 0"/>
            <feBlend mode="normal" in2="BackgroundImageFix" result="effect1_dropShadow"/>
            <feBlend mode="normal" in="SourceGraphic" in2="effect1_dropShadow" result="shape"/>
        </filter>
    </defs>
</svg>
