<svg width="108" height="108" viewBox="0 0 108 108" fill="none" xmlns="http://www.w3.org/2000/svg">
    <g filter="url(#filter0_d)">
        <path d="M104 50C104 77.6142 81.6142 100 54 100C26.3858 100 4 77.6142 4 50C4 22.3858 26.3858 0 54 0C81.6142 0 104 22.3858 104 50Z"
              fill="#F39C12"/>
        <path d="M103.884 46.5915C104.401 54.1603 103.189 61.7476 100.34 68.7787C97.4904 75.8098 93.0785 82.1003 87.4381 87.1738L81.6096 80.6942C86.2668 76.505 89.9097 71.3109 92.2623 65.5054C94.6149 59.6999 95.6156 53.4351 95.1886 47.1856L103.884 46.5915Z"
              fill="white"/>
        <path d="M76.4407 5.31871C83.2202 8.72363 89.136 13.6266 93.74 19.6564C98.344 25.6861 101.516 32.6844 103.014 40.1214L94.4709 41.8433C93.2333 35.7027 90.6146 29.9242 86.813 24.9455C83.0115 19.9668 78.1269 15.9184 72.5292 13.107L76.4407 5.31871Z"
              fill="white"/>
        <path d="M27.0914 7.85825C33.4856 3.77542 40.725 1.20116 48.2613 0.330427C55.7977 -0.540299 63.4334 0.315336 70.5901 2.83254L67.6983 11.0542C61.7891 8.97574 55.4843 8.26925 49.2616 8.9882C43.0389 9.70716 37.0614 11.8327 31.7818 15.2039L27.0914 7.85825Z"
              fill="white"/>
        <path d="M4.12871 53.5855C3.58468 46.0186 4.7697 38.427 7.59402 31.3859C10.4183 24.3447 14.8079 18.0386 20.4302 12.945L26.2817 19.404C21.6394 23.6097 18.0149 28.8166 15.6829 34.6305C13.3509 40.4443 12.3724 46.7126 12.8216 52.9605L4.12871 53.5855Z"
              fill="white"/>
        <path d="M31.5522 94.6777C24.7733 91.2717 18.8583 86.3678 14.2552 80.3373C9.65215 74.3069 6.4817 67.308 4.98401 59.8708L13.5279 58.1503C14.7645 64.2911 17.3823 70.07 21.183 75.0493C24.9837 80.0286 29.8677 84.0778 35.465 86.8901L31.5522 94.6777Z"
              fill="white"/>
        <path d="M81.9597 91.4519C75.6702 95.6942 68.4978 98.4497 60.9857 99.5096C53.4737 100.57 45.8189 99.9062 38.6011 97.5697L41.2853 89.278C47.2449 91.2072 53.5654 91.7549 59.7681 90.8797C65.9707 90.0046 71.8929 87.7294 77.0861 84.2265L81.9597 91.4519Z"
              fill="white"/>
        <path d="M26.6667 65H34.4833V37.6767H29.3267C29.0311 38.5167 28.65 39.2244 28.1833 39.8C27.7167 40.3756 27.1567 40.8267 26.5033 41.1533C25.85 41.48 25.2278 41.7211 24.6367 41.8767C24.0456 42.0322 23.3144 42.1722 22.4433 42.2967V47.2667L26.6667 46.8V65Z"
              fill="white"/>
        <path d="M46.5525 54.43V48.5733C46.5525 45.8044 46.7781 43.8756 47.2292 42.7867C47.6958 41.6978 48.4425 41.1533 49.4692 41.1533C51.4914 41.1533 52.5025 43.3544 52.5025 47.7567V53.38C52.5025 55.6356 52.3858 57.3544 52.1525 58.5367C51.9192 59.7033 51.6003 60.4656 51.1958 60.8233C50.7914 61.1656 50.2158 61.3367 49.4692 61.3367C48.4581 61.3367 47.7192 60.8233 47.2525 59.7967C46.7858 58.7544 46.5525 56.9656 46.5525 54.43ZM48.9792 65.49C50.8769 65.49 52.5258 65.28 53.9258 64.86C55.3414 64.44 56.5003 63.8489 57.4025 63.0867C58.3203 62.3244 59.0514 61.3444 59.5958 60.1467C60.1558 58.9489 60.5447 57.65 60.7625 56.25C60.9803 54.85 61.0892 53.2244 61.0892 51.3733C61.0892 49.6 61.0036 48.0522 60.8325 46.73C60.6614 45.3922 60.3347 44.1011 59.8525 42.8567C59.3703 41.6122 58.7247 40.5933 57.9158 39.8C57.1225 39.0067 56.0569 38.3767 54.7192 37.91C53.3969 37.4433 51.8336 37.21 50.0292 37.21C48.1314 37.21 46.4747 37.4278 45.0592 37.8633C43.6592 38.2989 42.5081 38.9056 41.6058 39.6833C40.7036 40.4456 39.9803 41.4333 39.4358 42.6467C38.8914 43.8444 38.5103 45.1433 38.2925 46.5433C38.0747 47.9433 37.9658 49.5689 37.9658 51.42C37.9658 53.1933 38.0514 54.7489 38.2225 56.0867C38.3936 57.4244 38.7125 58.7078 39.1792 59.9367C39.6614 61.1656 40.3069 62.1689 41.1158 62.9467C41.9247 63.7244 42.9825 64.3467 44.2892 64.8133C45.6114 65.2644 47.1747 65.49 48.9792 65.49Z"
              fill="white"/>
        <path d="M70.9568 54.43V48.5733C70.9568 45.8044 71.1824 43.8756 71.6335 42.7867C72.1001 41.6978 72.8468 41.1533 73.8735 41.1533C75.8957 41.1533 76.9068 43.3544 76.9068 47.7567V53.38C76.9068 55.6356 76.7901 57.3544 76.5568 58.5367C76.3235 59.7033 76.0046 60.4656 75.6001 60.8233C75.1957 61.1656 74.6201 61.3367 73.8735 61.3367C72.8624 61.3367 72.1235 60.8233 71.6568 59.7967C71.1901 58.7544 70.9568 56.9656 70.9568 54.43ZM73.3835 65.49C75.2812 65.49 76.9301 65.28 78.3301 64.86C79.7457 64.44 80.9046 63.8489 81.8068 63.0867C82.7246 62.3244 83.4557 61.3444 84.0001 60.1467C84.5601 58.9489 84.949 57.65 85.1668 56.25C85.3846 54.85 85.4935 53.2244 85.4935 51.3733C85.4935 49.6 85.4079 48.0522 85.2368 46.73C85.0657 45.3922 84.739 44.1011 84.2568 42.8567C83.7746 41.6122 83.129 40.5933 82.3201 39.8C81.5268 39.0067 80.4612 38.3767 79.1235 37.91C77.8012 37.4433 76.2379 37.21 74.4335 37.21C72.5357 37.21 70.879 37.4278 69.4635 37.8633C68.0635 38.2989 66.9124 38.9056 66.0101 39.6833C65.1079 40.4456 64.3846 41.4333 63.8401 42.6467C63.2957 43.8444 62.9146 45.1433 62.6968 46.5433C62.479 47.9433 62.3701 49.5689 62.3701 51.42C62.3701 53.1933 62.4557 54.7489 62.6268 56.0867C62.7979 57.4244 63.1168 58.7078 63.5835 59.9367C64.0657 61.1656 64.7112 62.1689 65.5201 62.9467C66.329 63.7244 67.3868 64.3467 68.6935 64.8133C70.0157 65.2644 71.579 65.49 73.3835 65.49Z"
              fill="white"/>
    </g>
    <defs>
        <filter id="filter0_d" x="-1.90735e-05" y="0" width="108" height="108" filterUnits="userSpaceOnUse"
                color-interpolation-filters="sRGB">
            <feFlood flood-opacity="0" result="BackgroundImageFix"/>
            <feColorMatrix in="SourceAlpha" type="matrix" values="0 0 0 0 0 0 0 0 0 0 0 0 0 0 0 0 0 0 127 0"/>
            <feOffset dy="4"/>
            <feGaussianBlur stdDeviation="2"/>
            <feColorMatrix type="matrix" values="0 0 0 0 0 0 0 0 0 0 0 0 0 0 0 0 0 0 0.5 0"/>
            <feBlend mode="normal" in2="BackgroundImageFix" result="effect1_dropShadow"/>
            <feBlend mode="normal" in="SourceGraphic" in2="effect1_dropShadow" result="shape"/>
        </filter>
    </defs>
</svg>
