<svg viewBox="0 0 108 108" fill="none" xmlns="http://www.w3.org/2000/svg">
    <g filter="url(#filter0_d)">
        <circle cx="54" cy="50" r="50" fill="#16A085"/>
        <path d="M103.884 46.5915C104.401 54.1603 103.189 61.7476 100.34 68.7787C97.4904 75.8098 93.0784 82.1003 87.4381 87.1738L81.6096 80.6942C86.2668 76.505 89.9097 71.3109 92.2623 65.5054C94.6149 59.6999 95.6156 53.4351 95.1886 47.1856L103.884 46.5915Z"
              fill="white"/>
        <path d="M76.4407 5.31871C83.2202 8.72363 89.136 13.6266 93.74 19.6564C98.344 25.6861 101.516 32.6844 103.014 40.1214L94.4709 41.8433C93.2333 35.7027 90.6146 29.9242 86.813 24.9455C83.0115 19.9668 78.1269 15.9184 72.5292 13.107L76.4407 5.31871Z"
              fill="white"/>
        <path d="M27.0914 7.85825C33.4856 3.77542 40.725 1.20116 48.2613 0.330427C55.7977 -0.540299 63.4334 0.315336 70.5901 2.83254L67.6983 11.0542C61.7891 8.97574 55.4843 8.26925 49.2616 8.9882C43.0389 9.70716 37.0614 11.8327 31.7818 15.2039L27.0914 7.85825Z"
              fill="white"/>
        <path d="M4.12871 53.5855C3.58468 46.0186 4.7697 38.427 7.59402 31.3859C10.4183 24.3447 14.8079 18.0386 20.4302 12.945L26.2817 19.404C21.6394 23.6097 18.0149 28.8166 15.6829 34.6305C13.3509 40.4443 12.3724 46.7126 12.8216 52.9605L4.12871 53.5855Z"
              fill="white"/>
        <path d="M31.5522 94.6777C24.7733 91.2717 18.8583 86.3678 14.2552 80.3373C9.65215 74.3069 6.4817 67.308 4.98401 59.8708L13.5279 58.1503C14.7645 64.2911 17.3823 70.07 21.183 75.0493C24.9837 80.0286 29.8677 84.0778 35.465 86.8901L31.5522 94.6777Z"
              fill="white"/>
        <path d="M81.9597 91.4519C75.6702 95.6942 68.4978 98.4497 60.9857 99.5096C53.4737 100.57 45.8189 99.9062 38.6011 97.5697L41.2853 89.278C47.2449 91.2072 53.5654 91.7549 59.7681 90.8797C65.9707 90.0046 71.8929 87.7294 77.0861 84.2265L81.9597 91.4519Z"
              fill="white"/>
        <path d="M40.5867 66.4667C44.4911 66.4667 47.4 65.6033 49.3133 63.8767C51.2422 62.15 52.2067 59.7467 52.2067 56.6667C52.2067 55.1889 51.9656 53.9056 51.4833 52.8167C51.0167 51.7122 50.3711 50.8489 49.5467 50.2267C48.7222 49.5889 47.8122 49.1222 46.8167 48.8267C45.8367 48.5156 44.7633 48.36 43.5967 48.36C42.8967 48.36 42.1344 48.4533 41.31 48.64C40.4856 48.8111 39.8633 49.0289 39.4433 49.2933L40.4233 44.4167H50.1533L51.7633 38.6533H35.36L33.82 54.24C35.9511 53.3844 37.88 52.9567 39.6067 52.9567C41.3022 52.9567 42.5389 53.3144 43.3167 54.03C44.11 54.7456 44.5067 55.7178 44.5067 56.9467C44.5067 58.58 44.0011 59.7467 42.99 60.4467C41.9944 61.1467 40.4544 61.4967 38.37 61.4967C37.67 61.4967 36.7911 61.3489 35.7333 61.0533C34.6756 60.7422 33.9056 60.3922 33.4233 60.0033V64.25C35.7567 65.7278 38.1444 66.4667 40.5867 66.4667Z"
              fill="white"/>
        <path d="M63.2517 55.43V49.5733C63.2517 46.8044 63.4773 44.8756 63.9284 43.7867C64.3951 42.6978 65.1417 42.1533 66.1684 42.1533C68.1906 42.1533 69.2017 44.3544 69.2017 48.7567V54.38C69.2017 56.6356 69.0851 58.3544 68.8517 59.5367C68.6184 60.7033 68.2995 61.4656 67.8951 61.8233C67.4906 62.1656 66.9151 62.3367 66.1684 62.3367C65.1573 62.3367 64.4184 61.8233 63.9517 60.7967C63.4851 59.7544 63.2517 57.9656 63.2517 55.43ZM65.6784 66.49C67.5762 66.49 69.225 66.28 70.625 65.86C72.0406 65.44 73.1995 64.8489 74.1017 64.0867C75.0195 63.3244 75.7506 62.3444 76.2951 61.1467C76.8551 59.9489 77.2439 58.65 77.4617 57.25C77.6795 55.85 77.7884 54.2244 77.7884 52.3733C77.7884 50.6 77.7028 49.0522 77.5317 47.73C77.3606 46.3922 77.0339 45.1011 76.5517 43.8567C76.0695 42.6122 75.4239 41.5933 74.6151 40.8C73.8217 40.0067 72.7562 39.3767 71.4184 38.91C70.0962 38.4433 68.5328 38.21 66.7284 38.21C64.8306 38.21 63.1739 38.4278 61.7584 38.8633C60.3584 39.2989 59.2073 39.9056 58.3051 40.6833C57.4028 41.4456 56.6795 42.4333 56.1351 43.6467C55.5906 44.8444 55.2095 46.1433 54.9917 47.5433C54.7739 48.9433 54.6651 50.5689 54.6651 52.42C54.6651 54.1933 54.7506 55.7489 54.9217 57.0867C55.0928 58.4244 55.4117 59.7078 55.8784 60.9367C56.3606 62.1656 57.0062 63.1689 57.8151 63.9467C58.6239 64.7244 59.6817 65.3467 60.9884 65.8133C62.3106 66.2644 63.8739 66.49 65.6784 66.49Z"
              fill="white"/>
    </g>
    <defs>
        <filter id="filter0_d" x="-1.90735e-05" y="0" width="108" height="108" filterUnits="userSpaceOnUse"
                color-interpolation-filters="sRGB">
            <feFlood flood-opacity="0" result="BackgroundImageFix"/>
            <feColorMatrix in="SourceAlpha" type="matrix" values="0 0 0 0 0 0 0 0 0 0 0 0 0 0 0 0 0 0 127 0"/>
            <feOffset dy="4"/>
            <feGaussianBlur stdDeviation="2"/>
            <feColorMatrix type="matrix" values="0 0 0 0 0 0 0 0 0 0 0 0 0 0 0 0 0 0 0.25 0"/>
            <feBlend mode="normal" in2="BackgroundImageFix" result="effect1_dropShadow"/>
            <feBlend mode="normal" in="SourceGraphic" in2="effect1_dropShadow" result="shape"/>
        </filter>
    </defs>
</svg>
