<svg width="108" height="108" viewBox="0 0 108 108" fill="none" xmlns="http://www.w3.org/2000/svg">
    <g filter="url(#filter0_d)">
        <circle cx="54" cy="50" r="50" fill="#3498DB"/>
        <path d="M103.884 46.5915C104.401 54.1603 103.189 61.7476 100.34 68.7787C97.4904 75.8098 93.0785 82.1003 87.4381 87.1738L81.6096 80.6942C86.2668 76.505 89.9097 71.3109 92.2623 65.5054C94.6149 59.6999 95.6156 53.4351 95.1886 47.1856L103.884 46.5915Z"
              fill="white"/>
        <path d="M76.4407 5.31871C83.2202 8.72363 89.136 13.6266 93.74 19.6564C98.344 25.6861 101.516 32.6844 103.014 40.1214L94.4709 41.8433C93.2333 35.7027 90.6146 29.9242 86.813 24.9455C83.0115 19.9668 78.1269 15.9184 72.5292 13.107L76.4407 5.31871Z"
              fill="white"/>
        <path d="M27.0914 7.85825C33.4856 3.77542 40.725 1.20116 48.2613 0.330427C55.7977 -0.540299 63.4334 0.315336 70.5901 2.83254L67.6983 11.0542C61.7891 8.97574 55.4843 8.26925 49.2616 8.9882C43.0389 9.70716 37.0614 11.8327 31.7818 15.2039L27.0914 7.85825Z"
              fill="white"/>
        <path d="M4.12871 53.5855C3.58468 46.0186 4.7697 38.427 7.59402 31.3859C10.4183 24.3447 14.8079 18.0386 20.4302 12.945L26.2817 19.404C21.6394 23.6097 18.0149 28.8166 15.6829 34.6305C13.3509 40.4443 12.3724 46.7126 12.8216 52.9605L4.12871 53.5855Z"
              fill="white"/>
        <path d="M31.5522 94.6777C24.7733 91.2717 18.8583 86.3678 14.2552 80.3373C9.65215 74.3069 6.4817 67.308 4.98401 59.8708L13.5279 58.1503C14.7645 64.2911 17.3823 70.07 21.183 75.0493C24.9837 80.0286 29.8677 84.0778 35.465 86.8901L31.5522 94.6777Z"
              fill="white"/>
        <path d="M81.9597 91.4519C75.6702 95.6942 68.4978 98.4497 60.9857 99.5096C53.4737 100.57 45.8189 99.9062 38.6011 97.5697L41.2853 89.278C47.2449 91.2072 53.5654 91.7549 59.7681 90.8797C65.9707 90.0046 71.8929 87.7294 77.0861 84.2265L81.9597 91.4519Z"
              fill="white"/>
        <path d="M50.6667 65H58.4833V37.6767H53.3267C53.0311 38.5167 52.65 39.2244 52.1833 39.8C51.7167 40.3756 51.1567 40.8267 50.5033 41.1533C49.85 41.48 49.2278 41.7211 48.6367 41.8767C48.0456 42.0322 47.3144 42.1722 46.4433 42.2967V47.2667L50.6667 46.8V65Z"
              fill="white"/>
    </g>
    <defs>
        <filter id="filter0_d" x="-1.90735e-05" y="0" width="108" height="108" filterUnits="userSpaceOnUse"
                color-interpolation-filters="sRGB">
            <feFlood flood-opacity="0" result="BackgroundImageFix"/>
            <feColorMatrix in="SourceAlpha" type="matrix" values="0 0 0 0 0 0 0 0 0 0 0 0 0 0 0 0 0 0 127 0"/>
            <feOffset dy="4"/>
            <feGaussianBlur stdDeviation="2"/>
            <feColorMatrix type="matrix" values="0 0 0 0 0 0 0 0 0 0 0 0 0 0 0 0 0 0 0.25 0"/>
            <feBlend mode="normal" in2="BackgroundImageFix" result="effect1_dropShadow"/>
            <feBlend mode="normal" in="SourceGraphic" in2="effect1_dropShadow" result="shape"/>
        </filter>
    </defs>
</svg>
